Coordinates
version=1
nRows=30
nColumns=38
inDegrees=no

Units are S.I. units (second, meters, Newtons, ...)
If the header above contains a line with 'inDegrees', this indicates whether rotational values are in degrees (yes) or radians (no).

endheader
time	pelvis_tilt	pelvis_list	pelvis_rotation	pelvis_tx	pelvis_ty	pelvis_tz	hip_flexion_r	hip_adduction_r	hip_rotation_r	knee_angle_r	ankle_angle_r	subtalar_angle_r	mtp_angle_r	hip_flexion_l	hip_adduction_l	hip_rotation_l	knee_angle_l	ankle_angle_l	subtalar_angle_l	mtp_angle_l	lumbar_extension	lumbar_bending	lumbar_rotation	arm_flex_r	arm_add_r	arm_rot_r	elbow_flex_r	pro_sup_r	wrist_flex_r	wrist_dev_r	arm_flex_l	arm_add_l	arm_rot_l	elbow_flex_l	pro_sup_l	wrist_flex_l	wrist_dev_l
3.77	0.0400403	0.0808991	-0.0224642	0.87133	0.985719	-0.343933	-0.489041	-0.111324	-0.475301	-0.353259	-0.13159	0.0999991	-0.0007745	0.617771	0.0959586	-0.179204	-0.997873	0.254238	0.0999991	-0.00241058	-0.217315	-0.117587	0.151229	-0.228276	-0.531753	-0.283516	1.93699	1.32964	0.00315353	-0.0407649	-0.76869	-0.334211	-0.187656	1.61889	1.70746	0.0955286	-0.0181185
3.78	0.0307238	0.0828043	-0.0325298	0.872766	0.988435	-0.343836	-0.503863	-0.123012	-0.459886	-0.37126	-0.231231	0.0999991	-0.0007745	0.601509	0.101517	-0.186872	-0.829763	0.284928	0.0999991	-0.00241058	-0.200771	-0.121146	0.165687	-0.229759	-0.531707	-0.282701	1.95271	1.34437	0.00315353	-0.0407649	-0.793701	-0.323999	-0.206311	1.63533	1.69462	0.0955286	-0.0181185
3.79	0.0254696	0.0795024	-0.0422466	0.873648	0.990647	-0.343402	-0.51156	-0.128275	-0.429925	-0.408863	-0.312861	0.0999991	-0.0007745	0.575235	0.102402	-0.190113	-0.66353	0.315023	0.0999991	-0.00241058	-0.191104	-0.119381	0.178263	-0.230295	-0.531098	-0.279827	1.96476	1.35956	0.00315353	-0.0407649	-0.808545	-0.312253	-0.223239	1.64592	1.68519	0.0955286	-0.0181185
3.8	0.0248453	0.072304	-0.0507211	0.874018	0.992345	-0.342735	-0.513375	-0.127893	-0.388379	-0.465785	-0.373367	0.0999991	-0.0007745	0.541249	0.100061	-0.18957	-0.507238	0.341211	0.0999991	-0.00241058	-0.189024	-0.113791	0.187734	-0.230236	-0.529686	-0.275287	1.97303	1.37425	0.00315353	-0.0407649	-0.81334	-0.300241	-0.237944	1.65147	1.67878	0.0955286	-0.0181185
3.81	0.0290415	0.0629739	-0.0571661	0.873906	0.993515	-0.341987	-0.510396	-0.123356	-0.339857	-0.540764	-0.413062	0.0999991	-0.0007745	0.502502	0.0961619	-0.186405	-0.36943	0.3596	0.0999991	-0.00241058	-0.194681	-0.106327	0.192995	-0.230083	-0.527201	-0.269442	1.97746	1.38743	0.00315353	-0.0407649	-0.808637	-0.289369	-0.249898	1.65304	1.67496	0.0955286	-0.0181185
3.82	0.0377834	0.0534645	-0.0609487	0.873301	0.994118	-0.341312	-0.503387	-0.116619	-0.289745	-0.631563	-0.435233	0.0999991	-0.0007745	0.462378	0.0923613	-0.182094	-0.258264	0.366762	0.0999991	-0.00241058	-0.207598	-0.0990737	0.193161	-0.230387	-0.523384	-0.262601	1.97794	1.39822	0.00315353	-0.0407649	-0.795275	-0.281007	-0.258615	1.6517	1.67325	0.0955286	-0.0181185
3.83	0.0502541	0.0456133	-0.0616122	0.872131	0.994077	-0.34083	-0.492656	-0.109795	-0.243325	-0.73514	-0.44483	0.0999991	-0.0007745	0.424394	0.0900765	-0.178067	-0.180607	0.360888	0.0999991	-0.00241058	-0.226688	-0.0938821	0.187631	-0.231674	-0.518031	-0.255015	1.97434	1.40598	0.00315353	-0.0407649	-0.774218	-0.276318	-0.263712	1.64836	1.67317	0.0955286	-0.0181185
3.84	0.0652202	0.0408365	-0.058886	0.870349	0.993308	-0.340609	-0.477971	-0.104798	-0.204909	-0.847928	-0.446802	0.0999991	-0.0007745	0.39181	0.0903244	-0.175297	-0.141103	0.342639	0.0999991	-0.00241058	-0.250311	-0.0920812	0.176126	-0.234378	-0.511028	-0.246882	1.96641	1.41048	0.00315353	-0.0407649	-0.746402	-0.276107	-0.264943	1.64353	1.67426	0.0955286	-0.0181185
3.85	0.0811371	0.0399561	-0.0527191	0.867961	0.991712	-0.340659	-0.458589	-0.103018	-0.177087	-0.966151	-0.444737	0.0999991	-0.0007745	0.367052	0.0936449	-0.174024	-0.141226	0.315317	0.0999991	-0.00241058	-0.276479	-0.0943065	0.158708	-0.238792	-0.502377	-0.23833	1.9539	1.41196	0.00315353	-0.0407649	-0.712614	-0.280733	-0.262221	1.63735	1.67613	0.0955286	-0.0181185
3.86	0.0963684	0.0431467	-0.0433187	0.865027	0.989171	-0.340941	-0.433391	-0.105164	-0.160496	-1.08614	-0.440254	0.0999991	-0.0007745	0.351175	0.100119	-0.173707	-0.178656	0.284462	0.0999991	-0.00241058	-0.303114	-0.100501	0.135797	-0.245044	-0.4922	-0.229412	1.93655	1.41103	0.00315353	-0.0407649	-0.67344	-0.290085	-0.255604	1.62952	1.67848	0.0955286	-0.0181185
3.87	0.109437	0.0500089	-0.0311841	0.861605	0.985712	-0.341403	-0.401091	-0.111285	-0.154023	-1.20456	-0.433193	0.0999991	-0.0007745	0.34365	0.109434	-0.173206	-0.247437	0.257024	0.0999991	-0.00241058	-0.328326	-0.110054	0.108162	-0.2531	-0.480721	-0.220089	1.91421	1.4086	0.00315353	-0.0407649	-0.629277	-0.303627	-0.245287	1.61952	1.68121	0.0955286	-0.0181185
3.88	0.119248	0.0597149	-0.0171183	0.857807	0.981478	-0.341959	-0.360499	-0.120883	-0.155276	-1.31852	-0.422361	0.0999991	-0.0007745	0.342514	0.120946	-0.171265	-0.33895	0.240187	0.0999991	-0.00241058	-0.350636	-0.122009	0.0768873	-0.26281	-0.46824	-0.210228	1.88695	1.40566	0.00315353	-0.0407649	-0.580414	-0.320486	-0.231594	1.60676	1.68443	0.0955286	-0.0181185
3.89	0.12528	0.0711859	-0.00219267	0.853781	0.976817	-0.342471	-0.310798	-0.133069	-0.16116	-1.42554	-0.4064	0.0999991	-0.0007745	0.344734	0.133719	-0.167172	-0.443205	0.239946	0.0999991	-0.00241058	-0.369124	-0.135278	0.0433068	-0.273972	-0.455123	-0.199621	1.85518	1.40307	0.00315353	-0.0407649	-0.527164	-0.339574	-0.214991	1.5909	1.68838	0.0955286	-0.0181185
3.9	0.127598	0.0832304	0.0123346	0.849639	0.972152	-0.342781	-0.251802	-0.146726	-0.168517	-1.5235	-0.384331	0.0999991	-0.0007745	0.346521	0.146664	-0.160745	-0.549878	0.259498	0.0999991	-0.00241058	-0.383507	-0.1488	0.00889182	-0.286425	-0.441784	-0.188034	1.81975	1.4013	0.00315353	-0.0407649	-0.470023	-0.359709	-0.196116	1.57211	1.69336	0.0955286	-0.0181185
3.91	0.126823	0.0947146	0.0251703	0.84543	0.967785	-0.342784	-0.184112	-0.160612	-0.174653	-1.61049	-0.355785	0.0999991	-0.0007745	0.34373	0.15863	-0.152289	-0.649249	0.298331	0.0999991	-0.00241058	-0.394075	-0.161607	-0.0248783	-0.300131	-0.428668	-0.175329	1.78205	1.40034	0.00315353	-0.0407649	-0.409811	-0.379723	-0.175809	1.55128	1.69955	0.0955286	-0.0181185
3.92	0.123963	0.104603	0.0351819	0.841184	0.963899	-0.342496	-0.109129	-0.173415	-0.177709	-1.68478	-0.321047	0.0999991	-0.0007745	0.332415	0.16848	-0.142492	-0.73312	0.352444	0.0999991	-0.00241058	-0.4015	-0.172822	-0.0566653	-0.315249	-0.416208	-0.161605	1.7439	1.39961	0.00315353	-0.0407649	-0.347753	-0.39853	-0.155115	1.53002	1.70687	0.0955286	-0.0181185
3.93	0.120134	0.112008	0.0415922	0.836976	0.960685	-0.341995	-0.0289059	-0.183796	-0.176865	-1.74478	-0.28098	0.0999991	-0.0007745	0.309472	0.175147	-0.132333	-0.795606	0.415586	0.0999991	-0.00241058	-0.40655	-0.181595	-0.0854084	-0.332167	-0.404771	-0.147326	1.70746	1.39825	0.00315353	-0.0407649	-0.285472	-0.415173	-0.135231	1.51059	1.71495	0.0955286	-0.0181185
3.94	0.11628	0.116146	0.0441293	0.832953	0.958372	-0.341307	0.0541257	-0.190509	-0.172368	-1.78907	-0.236919	0.0999991	-0.0007745	0.273171	0.177723	-0.122962	-0.833531	0.480733	0.0999991	-0.00241058	-0.409782	-0.187105	-0.110434	-0.351462	-0.394602	-0.133355	1.67495	1.39539	0.00315353	-0.0407649	-0.224874	-0.428854	-0.117385	1.49547	1.72316	0.0955286	-0.0181185
3.95	0.112955	0.116394	0.0430605	0.829306	0.957144	-0.340451	0.137448	-0.192556	-0.165387	-1.8165	-0.190517	0.0999991	-0.0007745	0.223375	0.17552	-0.115708	-0.84636	0.541252	0.0999991	-0.00241058	-0.411361	-0.188598	-0.131501	-0.373793	-0.385785	-0.120848	1.64835	1.39056	0.00315353	-0.0407649	-0.16795	-0.438976	-0.102658	1.48701	1.73075	0.0955286	-0.0181185
3.96	0.110234	0.112384	0.0390819	0.826228	0.957055	-0.339515	0.218684	-0.189316	-0.157684	-1.82622	-0.143611	0.0999991	-0.0007745	0.161409	0.168131	-0.112063	-0.835715	0.591393	0.0999991	-0.00241058	-0.411066	-0.185473	-0.148765	-0.399725	-0.378226	-0.111037	1.62908	1.3839	0.00315353	-0.0407649	-0.116534	-0.445217	-0.0917873	1.48702	1.73693	0.0955286	-0.0181185
3.97	0.107814	0.104035	0.0331289	0.823889	0.958038	-0.338606	0.295747	-0.180624	-0.15121	-1.81767	-0.097963	0.0999991	-0.0007745	0.0896765	0.155474	-0.113625	-0.804705	0.626346	0.0999991	-0.00241058	-0.408442	-0.177414	-0.162676	-0.429558	-0.371681	-0.10497	1.61786	1.37609	0.00315353	-0.0407649	-0.0720721	-0.447594	-0.085005	1.49656	1.74102	0.0955286	-0.0181185
3.98	0.10519	0.0915674	0.0261571	0.822401	0.959965	-0.337744	0.366906	-0.166759	-0.147749	-1.7906	-0.0549355	0.0999991	-0.0007745	0.0112022	0.137792	-0.121966	-0.757332	0.642231	0.0999991	-0.00241058	-0.403017	-0.16448	-0.173844	-0.463179	-0.365795	-0.103291	1.61459	1.36812	0.00315353	-0.0407649	-0.0354638	-0.446485	-0.0819801	1.51583	1.74253	0.0955286	-0.0181185
3.99	0.101836	0.0754637	0.0189632	0.821802	0.962676	-0.336872	0.430796	-0.148346	-0.148623	-1.74502	-0.0153377	0.0999991	-0.0007745	-0.0707653	0.115685	-0.138283	-0.698048	0.636156	0.0999991	-0.00241058	-0.394504	-0.14715	-0.18291	-0.499993	-0.360165	-0.106137	1.61839	1.36096	0.00315353	-0.0407649	-0.00699637	-0.442595	-0.0818654	1.54422	1.74129	0.0955286	-0.0181185
4	0.0973377	0.0565231	0.0120823	0.82205	0.965987	-0.335936	0.486388	-0.126248	-0.154583	-1.68108	0.020605	0.0999991	-0.0007745	-0.153019	0.0901236	-0.16293	-0.631521	0.606387	0.0999991	-0.00241058	-0.382912	-0.126277	-0.190451	-0.538931	-0.354391	-0.113154	1.62782	1.35529	0.00315353	-0.0407649	0.0136324	-0.436873	-0.0834379	1.58048	1.73748	0.0955286	-0.0181185
4.01	0.0914595	0.0358003	0.00578924	0.823019	0.969691	-0.334888	0.532954	-0.101518	-0.16584	-1.59917	0.0531779	0.0999991	-0.0007745	-0.232541	0.0624455	-0.195014	-0.562544	0.552631	0.0999991	-0.00241058	-0.368591	-0.103058	-0.196949	-0.578534	-0.348119	-0.123608	1.64106	1.35139	0.00315353	-0.0407649	0.0272239	-0.430384	-0.0852837	1.62282	1.73166	0.0955286	-0.0181185
4.02	0.0841746	0.0145597	0.000172232	0.824517	0.973578	-0.333684	0.570029	-0.0753728	-0.182233	-1.49995	0.083001	0.0999991	-0.0007745	-0.306584	0.0342695	-0.232261	-0.496028	0.476332	0.0999991	-0.00241058	-0.352199	-0.0789352	-0.202795	-0.617101	-0.341074	-0.136541	1.65618	1.34916	0.00315353	-0.0407649	0.0349485	-0.424183	-0.085985	1.66914	1.72474	0.0955286	-0.0181185
4.03	0.0756653	-0.00580535	-0.00475682	0.826298	0.977453	-0.332312	0.597378	-0.0491672	-0.203399	-1.38459	0.110737	0.0999991	-0.0007745	-0.372733	0.00736834	-0.271037	-0.436939	0.380898	0.0999991	-0.00241058	-0.334633	-0.0554702	-0.208296	-0.652864	-0.333091	-0.150917	1.67139	1.34819	0.00315353	-0.0407649	0.038196	-0.419176	-0.084285	1.71717	1.71786	0.0955286	-0.0181185
4.04	0.0663177	-0.0238947	-0.00896236	0.828111	0.981135	-0.330836	0.614993	-0.0243349	-0.22891	-1.25508	0.136837	0.0999991	-0.0007745	-0.429003	-0.0164921	-0.306652	-0.390144	0.271743	0.0999991	-0.00241058	-0.316953	-0.0341751	-0.213687	-0.684175	-0.324125	-0.165751	1.68526	1.34791	0.00315353	-0.0407649	0.0384176	-0.416006	-0.0792215	1.76458	1.71222	0.0955286	-0.0181185
4.05	0.056714	-0.0384579	-0.0123367	0.829738	0.984459	-0.329393	0.62313	-0.00227669	-0.258305	-1.11451	0.16136	0.0999991	-0.0007745	-0.473954	-0.0357595	-0.334083	-0.360139	0.155995	0.0999991	-0.00241058	-0.300308	-0.0163399	-0.219107	-0.709656	-0.31426	-0.180198	1.69676	1.34768	0.00315353	-0.0407649	0.0369725	-0.414983	-0.0702233	1.80916	1.70879	0.0955286	-0.0181185
4.06	0.0476113	-0.0485588	-0.0147187	0.831017	0.987298	-0.328158	0.622353	0.015811	-0.290985	-0.967346	0.183871	0.0999991	-0.0007745	-0.506802	-0.0493357	-0.349082	-0.35074	0.0417788	0.0999991	-0.00241058	-0.285888	-0.00286371	-0.224551	-0.72831	-0.3037	-0.19362	1.70537	1.34694	0.00315353	-0.0407649	0.034993	-0.41606	-0.0571606	1.84891	1.70806	0.0955286	-0.0181185
